<?xml version="1.0" encoding="UTF-8"?>
<!DOCTYPE svg PUBLIC "-//W3C//DTD SVG 1.1//EN" "http://www.w3.org/Graphics/SVG/1.1/DTD/svg11.dtd">
<!-- Creator: CorelDRAW 2019 (64 Bit) -->
<svg xmlns="http://www.w3.org/2000/svg" xml:space="preserve" width="87mm" height="44mm" version="1.1" style="shape-rendering:geometricPrecision; text-rendering:geometricPrecision; image-rendering:optimizeQuality; fill-rule:evenodd; clip-rule:evenodd"
viewBox="0 0 8700 4400"
 xmlns:xlink="http://www.w3.org/1999/xlink"
 xmlns:xodm="http://www.corel.com/coreldraw/odm/2003">
 <defs>
  <style type="text/css">
   <![CDATA[
    .fil0 {fill:#FF6600;fill-rule:nonzero}
    .fil2 {fill:#FF6600;fill-rule:nonzero}
    .fil1 {fill:white;fill-rule:nonzero}
   ]]>
  </style>
 </defs>
 <g id="Camada_x0020_1">
  <metadata id="CorelCorpID_0Corel-Layer"/>
  <g id="_1632742373440">
   <path class="fil0" d="M8480.86 3953.11c-54.16,46.14 -106.39,78.47 -156.4,97.54 -50.01,19.07 -103.61,28.45 -161.1,28.45 -94.5,0 -167.17,-22.93 -218.01,-69.06 -50.85,-45.88 -76.27,-104.75 -76.27,-176.3 0,-42 9.67,-80.42 28.75,-115.24 19.32,-34.81 44.47,-62.44 75.43,-83.44 31.21,-21.01 66.03,-37.02 104.99,-47.81 28.75,-7.47 72.12,-14.63 129.87,-21.82 117.73,-13.82 204.77,-30.68 260.3,-50.01 0.55,-19.9 0.83,-32.62 0.83,-37.87 0,-59.12 -13.81,-100.85 -41.44,-125.17 -37.3,-32.88 -92.86,-49.19 -166.35,-49.19 -68.81,0 -119.64,12.16 -152.25,36.21 -32.89,24.02 -56.92,66.6 -72.68,127.93l-142.58 -19.9c12.98,-61.06 34.27,-110.52 64.11,-148.1 29.84,-37.57 72.94,-66.32 129.32,-86.76 56.08,-20.17 121.58,-30.42 195.64,-30.42 73.49,0 133.45,8.58 179.61,25.99 45.86,17.41 79.85,38.97 101.41,65.21 21.54,26.26 36.74,59.41 45.59,99.47 4.7,24.87 7.19,69.64 7.19,134.02l0 193.43c0,135.12 3.03,220.51 9.1,256.7 5.82,36.21 17.98,70.75 35.66,103.9l-152.54 0c-14.63,-30.66 -24.03,-66.59 -28.18,-107.76zm-11.61 -323.29c-53.05,21.54 -132.63,39.79 -238.75,54.71 -60.23,8.56 -102.78,18.23 -127.65,29 -24.87,10.79 -43.94,26.53 -57.47,46.98 -13.55,20.71 -20.45,43.66 -20.45,69.08 0,38.4 14.65,70.73 44.2,96.44 29.57,25.69 72.69,38.68 129.34,38.68 56.08,0 106.09,-12.16 150.03,-36.74 43.65,-24.32 75.98,-57.77 96.45,-100.04 15.74,-32.88 23.47,-81.23 23.47,-145.07l0.83 -53.04z"/>
   <path class="fil0" d="M7031.82 3803.9l144.24 -23.22c8.01,57.76 30.66,101.96 67.69,132.92 37.03,30.66 88.98,46.13 155.29,46.13 67.14,0 116.88,-13.53 149.5,-40.88 32.33,-27.09 48.63,-59.14 48.63,-95.9 0,-32.88 -14.65,-58.84 -43.65,-77.64 -20.46,-12.98 -70.2,-29.29 -149.22,-49.46 -106.66,-26.81 -180.44,-50.02 -221.9,-69.64 -41.16,-19.89 -72.39,-46.97 -93.66,-81.79 -21.28,-34.54 -32.05,-72.94 -32.05,-114.95 0,-38.4 8.83,-73.78 26.24,-106.38 17.68,-32.61 41.45,-59.69 71.57,-81.23 22.65,-16.59 53.61,-30.68 92.56,-42.3 39.24,-11.59 80.97,-17.41 125.74,-17.41 67.42,0 126.55,9.68 177.39,29.3 51.13,19.35 88.71,45.88 113.03,79.03 24.02,33.45 40.88,77.92 50.01,133.75l-142.6 19.89c-6.34,-44.76 -25.14,-79.85 -56.08,-105 -30.96,-25.14 -74.61,-37.57 -131.26,-37.57 -66.6,0 -114.39,11.04 -142.85,33.15 -28.47,22.11 -42.84,48.07 -42.84,77.64 0,18.8 5.81,35.93 17.68,51.13 11.89,15.47 30.41,28.45 55.83,38.67 14.65,5.52 57.2,17.96 128.49,37.31 102.79,27.35 174.64,50.01 215.52,67.42 40.91,17.41 72.97,43.12 96.17,76.27 23.48,33.42 35.09,74.88 35.09,124.62 0,48.36 -14.1,93.95 -42.55,136.78 -28.45,42.82 -69.36,75.99 -122.68,99.47 -53.62,23.5 -114.12,35.09 -181.55,35.09 -111.63,0 -197.03,-23.2 -255.6,-69.36 -58.59,-46.4 -95.89,-114.94 -112.18,-205.84z"/>
   <path class="fil0" d="M6754.66 3782.34l150.87 19.9c-23.49,87.59 -67.42,155.85 -131.53,204.2 -64.11,48.36 -145.9,72.66 -245.65,72.66 -125.44,0 -224.92,-38.67 -298.43,-116.04 -73.51,-77.09 -110.25,-185.69 -110.25,-325.23 0,-144.24 37.03,-256.43 111.35,-336.01 74.33,-79.87 170.77,-119.67 289.32,-119.67 114.67,0 208.35,38.97 281.02,117.18 72.67,78.19 109.15,188.17 109.15,329.92 0,8.58 -0.28,21.56 -0.82,38.69l-640.8 0c5.52,94.23 32.05,166.63 80.13,216.64 47.8,50.01 107.76,75.15 179.33,75.15 53.34,0 98.92,-14.08 136.5,-42.27 37.85,-28.18 67.7,-73.22 89.81,-135.12zm-477.49 -233.77l479.15 0c-6.36,-72.39 -24.87,-126.56 -54.99,-162.76 -46.15,-56.09 -106.38,-84.26 -180.17,-84.26 -66.87,0 -122.95,22.38 -168.56,67.14 -45.31,44.77 -70.46,104.73 -75.43,179.88z"/>
   <path class="fil0" d="M5613.99 4060.87l0 -860.46 130.98 0 0 131.8c33.43,-61.07 64.39,-101.41 92.84,-120.76 28.47,-19.62 59.69,-29.3 93.68,-29.3 49.19,0 99.2,15.49 150.04,46.16l-51.93 134.57c-35.39,-19.9 -70.75,-29.85 -106.12,-29.85 -31.78,0 -60.23,9.68 -85.38,28.75 -25.16,19.05 -43.11,45.59 -53.88,79.58 -16.32,51.68 -24.33,108.31 -24.33,169.93l0 449.58 -145.9 0z"/>
   <path class="fil0" d="M4693.56 4390.81l0 -1190.4 132.63 0 0 113c31.23,-43.65 66.6,-76.52 106.11,-98.36 39.25,-21.83 87.05,-32.9 143.15,-32.9 73.49,0 138.15,18.8 194.25,56.66 56.08,37.57 98.36,90.91 127.11,159.43 28.45,68.81 42.82,143.97 42.82,226.04 0,87.6 -15.74,166.62 -47.25,237.09 -31.51,70.18 -77.37,124.07 -137.6,161.65 -59.96,37.3 -123.25,56.08 -189.55,56.08 -48.64,0 -92.31,-10.22 -130.71,-30.66 -38.7,-20.44 -70.18,-46.16 -95.05,-77.37l0 419.74 -145.91 0zm132.63 -754.92c0,110.24 22.38,191.76 66.87,244.54 44.77,52.79 98.93,79.3 162.49,79.3 64.66,0 119.92,-27.35 165.78,-82.07 46.16,-54.71 69.09,-139.26 69.09,-253.93 0,-109.43 -22.38,-191.22 -67.42,-245.66 -45.04,-54.44 -98.66,-81.5 -161.1,-81.5 -61.9,0 -116.61,29 -164.14,86.75 -47.8,58.04 -71.57,142.05 -71.57,252.57z"/>
   <path class="fil0" d="M3312.49 4060.87l0 -860.46 130.98 0 0 121.58c26.79,-42 62.72,-76 107.49,-101.42 44.76,-25.69 95.6,-38.42 152.8,-38.42 63.56,0 115.78,13.28 156.4,39.52 40.63,26.53 69.36,63.29 85.94,110.82 68.52,-100.3 157.22,-150.34 266.65,-150.34 85.67,0 151.7,23.5 197.58,70.75 46.13,47.26 69.36,119.92 69.36,218.03l0 589.94 -145.91 0 0 -541.59c0,-58.02 -4.97,-100.03 -14.37,-125.72 -9.4,-25.71 -26.53,-46.15 -51.68,-61.9 -24.86,-15.76 -54.14,-23.5 -87.59,-23.5 -60.78,0 -111.08,20.17 -151.15,60.24 -40.06,40.36 -59.96,104.74 -59.96,193.15l0 499.32 -145.9 0 0 -558.45c0,-64.66 -11.87,-113.28 -35.64,-145.61 -23.75,-32.33 -62.72,-48.65 -116.61,-48.65 -40.89,0 -78.74,10.79 -113.56,32.33 -34.81,21.56 -59.98,53.07 -75.72,94.78 -15.47,41.46 -23.21,101.42 -23.21,179.63l0 445.97 -145.9 0z"/>
   <path class="fil0" d="M2977.31 3782.34l150.88 19.9c-23.5,87.59 -67.43,155.85 -131.54,204.2 -64.11,48.36 -145.9,72.66 -245.65,72.66 -125.44,0 -224.92,-38.67 -298.43,-116.04 -73.51,-77.09 -110.25,-185.69 -110.25,-325.23 0,-144.24 37.03,-256.43 111.35,-336.01 74.33,-79.87 170.77,-119.67 289.32,-119.67 114.67,0 208.35,38.97 281.02,117.18 72.67,78.19 109.15,188.17 109.15,329.92 0,8.58 -0.28,21.56 -0.82,38.69l-640.8 0c5.52,94.23 32.05,166.63 80.13,216.64 47.8,50.01 107.76,75.15 179.33,75.15 53.34,0 98.93,-14.08 136.5,-42.27 37.86,-28.18 67.7,-73.22 89.81,-135.12zm-477.49 -233.77l479.15 0c-6.36,-72.39 -24.87,-126.56 -54.98,-162.76 -46.16,-56.09 -106.39,-84.26 -180.18,-84.26 -66.87,0 -122.95,22.38 -168.56,67.14 -45.31,44.77 -70.45,104.73 -75.43,179.88z"/>
   <path class="fil0" d="M1569.72 3953.11c-54.16,46.14 -106.39,78.47 -156.4,97.54 -50.01,19.07 -103.61,28.45 -161.1,28.45 -94.5,0 -167.17,-22.93 -218.01,-69.06 -50.85,-45.88 -76.27,-104.75 -76.27,-176.3 0,-42 9.68,-80.42 28.75,-115.24 19.33,-34.81 44.47,-62.44 75.43,-83.44 31.21,-21.01 66.03,-37.02 105,-47.81 28.74,-7.47 72.12,-14.63 129.86,-21.82 117.73,-13.82 204.77,-30.68 260.31,-50.01 0.54,-19.9 0.82,-32.62 0.82,-37.87 0,-59.12 -13.81,-100.85 -41.44,-125.17 -37.3,-32.88 -92.85,-49.19 -166.35,-49.19 -68.81,0 -119.64,12.16 -152.24,36.21 -32.9,24.02 -56.93,66.6 -72.69,127.93l-142.58 -19.9c12.98,-61.06 34.27,-110.52 64.11,-148.1 29.85,-37.57 72.95,-66.32 129.32,-86.76 56.08,-20.17 121.59,-30.42 195.64,-30.42 73.5,0 133.46,8.58 179.61,25.99 45.86,17.41 79.85,38.97 101.41,65.21 21.54,26.26 36.74,59.41 45.59,99.47 4.7,24.87 7.19,69.64 7.19,134.02l0 193.43c0,135.12 3.03,220.51 9.1,256.7 5.82,36.21 17.98,70.75 35.66,103.9l-152.54 0c-14.63,-30.66 -24.03,-66.59 -28.18,-107.76zm-11.61 -323.29c-53.05,21.54 -132.63,39.79 -238.74,54.71 -60.24,8.56 -102.79,18.23 -127.66,29 -24.87,10.79 -43.94,26.53 -57.47,46.98 -13.55,20.71 -20.45,43.66 -20.45,69.08 0,38.4 14.65,70.73 44.2,96.44 29.57,25.69 72.69,38.68 129.34,38.68 56.08,0 106.09,-12.16 150.04,-36.74 43.64,-24.32 75.97,-57.77 96.44,-100.04 15.74,-32.88 23.48,-81.23 23.48,-145.07l0.82 -53.04z"/>
   <path class="fil0" d="M640.99 4060.87l0 -109.15c-54.42,84.83 -134.57,127.38 -240.39,127.38 -68.53,0 -131.53,-18.78 -188.73,-56.63 -57.47,-37.59 -101.96,-90.37 -133.74,-157.79 -31.51,-67.69 -47.25,-145.33 -47.25,-233.22 0,-85.65 14.37,-163.29 42.82,-233.22 28.75,-69.63 71.57,-123.23 128.77,-160.26 56.93,-37.3 121.04,-55.83 191.49,-55.83 51.96,0 98.11,11.07 138.45,32.9 40.34,21.84 73.22,50.56 98.63,85.65l0 -426.92 145.91 0 0 1187.09 -135.96 0zm-460.9 -429.13c0,109.99 23.21,192.06 69.91,246.49 46.43,54.42 101.41,81.5 164.68,81.5 63.84,0 118,-25.96 162.77,-77.91 44.49,-51.95 66.87,-131.26 66.87,-237.92 0,-117.16 -22.66,-203.38 -68.26,-258.37 -45.32,-54.98 -101.4,-82.34 -168,-82.34 -64.93,0 -119.09,26.26 -162.76,79.03 -43.38,52.78 -65.21,135.96 -65.21,249.52z"/>
   <path class="fil1" d="M6819.57 1606.41c0,-158.15 38.65,-311.06 116.56,-458.82 77.91,-148.3 188.12,-260.84 330.69,-338.75 142.53,-77.91 301.25,-117.17 477.27,-117.17 271.8,0 493.99,88.29 667.68,264.93 173.73,177.16 260.31,399.93 260.31,670.01 0,272.38 -87.72,498.05 -262.6,676.93 -175.45,178.88 -395.88,268.36 -661.96,268.36 -164.44,0 -321.41,-37.54 -470.88,-111.97 -148.91,-74.43 -262.6,-183.51 -340.51,-327.79 -77.91,-143.71 -116.56,-319.16 -116.56,-525.73zm488.23 25.4c0,178.31 42.12,315.07 126.37,409.74 84.82,95.21 188.7,142.53 312.78,142.53 123.51,0 227.39,-47.32 311.06,-142.53 83.68,-94.67 125.8,-232.58 125.8,-413.22 0,-176.02 -42.12,-311.63 -125.8,-406.27 -83.67,-95.25 -187.55,-142.57 -311.06,-142.57 -124.08,0 -227.96,47.32 -312.78,142.57 -84.25,94.64 -126.37,231.4 -126.37,409.75z"/>
   <path class="fil2" d="M5393.54 1616.22l0 -418.98 1076.85 0 0 989.13c-104.45,102.16 -256.22,191.6 -455.3,269.51 -198.56,77.34 -399.97,116.02 -604.25,116.02 -259.13,0 -484.75,-54.27 -677.5,-163.34 -192.18,-109.07 -337.03,-265.46 -434,-468.02 -96.97,-202.56 -145.43,-423.61 -145.43,-661.92 0,-258.55 54.23,-488.27 162.16,-689.64 108.5,-200.85 266.64,-355.52 474.97,-462.83 159.26,-82.53 356.62,-123.51 593.25,-123.51 307.59,0 548.27,64.61 721.39,193.89 172.54,129.85 283.94,308.16 333.55,536.69l-498.61 93.53c-34.6,-121.79 -100.41,-218.18 -196.8,-289.14 -95.78,-70.43 -215.81,-105.64 -360.1,-105.64 -218.14,0 -391.87,69.28 -520.53,208.37 -128.71,139.05 -193.36,345.09 -193.36,618.08 0,294.86 65.23,515.91 195.65,663.06 130.99,147.19 301.82,221.05 513.62,221.05 104.45,0 209.47,-20.78 314.54,-61.76 105.59,-40.98 195.61,-91.16 271.23,-150.05l0 -314.5 -571.33 0z"/>
   <path class="fil1" d="M2011.16 1606.41c0,-158.15 38.64,-311.06 116.55,-458.82 77.91,-148.3 188.13,-260.84 330.7,-338.75 142.52,-77.91 301.24,-117.17 477.26,-117.17 271.8,0 494,88.29 667.69,264.93 173.73,177.16 260.31,399.93 260.31,670.01 0,272.38 -87.73,498.05 -262.6,676.93 -175.45,178.88 -395.89,268.36 -661.96,268.36 -164.45,0 -321.41,-37.54 -470.89,-111.97 -148.9,-74.43 -262.6,-183.51 -340.51,-327.79 -77.91,-143.71 -116.55,-319.16 -116.55,-525.73zm488.22 25.4c0,178.31 42.13,315.07 126.38,409.74 84.82,95.21 188.69,142.53 312.78,142.53 123.5,0 227.38,-47.32 311.06,-142.53 83.67,-94.67 125.8,-232.58 125.8,-413.22 0,-176.02 -42.13,-311.63 -125.8,-406.27 -83.68,-95.25 -187.56,-142.57 -311.06,-142.57 -124.09,0 -227.96,47.32 -312.78,142.57 -84.25,94.64 -126.38,231.4 -126.38,409.75z"/>
   <polygon class="fil1" points="24.18,2526.88 24.18,68.4 526.27,68.4 526.27,2107.89 1769.37,2107.89 1769.37,2526.88 "/>
  </g>
 </g>
</svg>
